<?xml version="1.0" encoding="UTF-8"?>
<!DOCTYPE svg PUBLIC "-//W3C//DTD SVG 1.1//EN" "http://www.w3.org/Graphics/SVG/1.1/DTD/svg11.dtd">
<svg xmlns="http://www.w3.org/2000/svg" version="1.1" width="64px" height="64px" style="shape-rendering:geometricPrecision; text-rendering:geometricPrecision; image-rendering:optimizeQuality; fill-rule:evenodd; clip-rule:evenodd" xmlns:xlink="http://www.w3.org/1999/xlink">
<g><path style="opacity:1" fill="#dfdfdf" d="M -0.5,-0.5 C 20.8333,-0.5 42.1667,-0.5 63.5,-0.5C 63.5,20.8333 63.5,42.1667 63.5,63.5C 42.1667,63.5 20.8333,63.5 -0.5,63.5C -0.5,42.1667 -0.5,20.8333 -0.5,-0.5 Z"/></g>
<g><path style="opacity:1" fill="#050203" d="M 1.5,1.5 C 21.5,1.5 41.5,1.5 61.5,1.5C 61.5,21.5 61.5,41.5 61.5,61.5C 41.5,61.5 21.5,61.5 1.5,61.5C 1.5,41.5 1.5,21.5 1.5,1.5 Z"/></g>
<g><path style="opacity:1" fill="#e3e4e3" d="M 47.5,20.5 C 39.6484,20.8254 31.9818,20.492 24.5,19.5C 24.9528,18.5416 25.6195,17.7083 26.5,17C 32.5,16.3333 38.5,16.3333 44.5,17C 46.4257,17.4224 47.4257,18.5891 47.5,20.5 Z"/></g>
<g><path style="opacity:1" fill="#e698a0" d="M 24.5,19.5 C 31.9818,20.492 39.6484,20.8254 47.5,20.5C 47.5,20.8333 47.5,21.1667 47.5,21.5C 40.8333,21.5 34.1667,21.5 27.5,21.5C 26.1667,21.5 24.8333,21.5 23.5,21.5C 23.3284,20.5084 23.6618,19.8417 24.5,19.5 Z"/></g>
<g><path style="opacity:1" fill="#f61025" d="M 27.5,21.5 C 34.1667,21.5 40.8333,21.5 47.5,21.5C 47.5,24.1667 47.5,26.8333 47.5,29.5C 46.6618,29.8417 46.3284,30.5084 46.5,31.5C 45.1667,31.5 43.8333,31.5 42.5,31.5C 41.4228,28.028 39.7561,27.6947 37.5,30.5C 34.1667,30.5 30.8333,30.5 27.5,30.5C 27.5,27.5 27.5,24.5 27.5,21.5 Z"/></g>
<g><path style="opacity:1" fill="#eb222b" d="M 20.5,25.5 C 22.0418,26.3007 23.7085,26.634 25.5,26.5C 25.5,28.1667 25.5,29.8333 25.5,31.5C 24.8333,30.8333 24.1667,30.1667 23.5,29.5C 22.3991,28.4017 21.0657,28.235 19.5,29C 18.7476,29.6708 18.4142,30.5041 18.5,31.5C 18.1667,31.5 17.8333,31.5 17.5,31.5C 17.5,30.1667 16.8333,29.5 15.5,29.5C 16.2061,27.1236 17.8727,25.7903 20.5,25.5 Z"/></g>
<g><path style="opacity:1" fill="#a50e1d" d="M 23.5,21.5 C 24.8333,21.5 26.1667,21.5 27.5,21.5C 27.5,24.5 27.5,27.5 27.5,30.5C 30.8333,30.5 34.1667,30.5 37.5,30.5C 37.5,30.8333 37.5,31.1667 37.5,31.5C 33.5,31.5 29.5,31.5 25.5,31.5C 25.5,29.8333 25.5,28.1667 25.5,26.5C 23.7085,26.634 22.0418,26.3007 20.5,25.5C 21.0256,23.7697 22.0256,22.4363 23.5,21.5 Z"/></g>
<g><path style="opacity:1" fill="#0e0204" d="M 23.5,22.5 C 24.7759,23.3864 24.7759,24.3864 23.5,25.5C 22.4376,24.5754 22.4376,23.5754 23.5,22.5 Z"/></g>
<g><path style="opacity:1" fill="#ceb4b5" d="M 23.5,29.5 C 23.5,30.8333 23.5,32.1667 23.5,33.5C 22.5,33.5 21.5,33.5 20.5,33.5C 19.5,33.1667 18.8333,32.5 18.5,31.5C 18.4142,30.5041 18.7476,29.6708 19.5,29C 21.0657,28.235 22.3991,28.4017 23.5,29.5 Z"/></g>
<g><path style="opacity:1" fill="#d7c2c4" d="M 42.5,31.5 C 42.1667,32.1667 41.8333,32.8333 41.5,33.5C 40.209,33.7373 39.209,33.404 38.5,32.5C 38.1667,32.5 37.8333,32.5 37.5,32.5C 37.5,32.1667 37.5,31.8333 37.5,31.5C 37.5,31.1667 37.5,30.8333 37.5,30.5C 39.7561,27.6947 41.4228,28.028 42.5,31.5 Z"/></g>
<g><path style="opacity:1" fill="#c4a3a5" d="M 15.5,29.5 C 16.8333,29.5 17.5,30.1667 17.5,31.5C 16.325,31.719 15.325,31.3857 14.5,30.5C 14.6236,29.8933 14.9569,29.56 15.5,29.5 Z"/></g>
<g><path style="opacity:1" fill="#ada4a4" d="M 47.5,29.5 C 48.7574,30.6226 48.4241,31.2893 46.5,31.5C 46.3284,30.5084 46.6618,29.8417 47.5,29.5 Z"/></g>
<g><path style="opacity:1" fill="#f83943" d="M 20.5,30.5 C 22.337,30.6395 22.6704,31.3061 21.5,32.5C 20.7025,32.0431 20.3691,31.3764 20.5,30.5 Z"/></g>
<g><path style="opacity:1" fill="#f94146" d="M 38.5,32.5 C 38.6395,30.663 39.3061,30.3296 40.5,31.5C 40.0431,32.2975 39.3764,32.6309 38.5,32.5 Z"/></g>
<g><path style="opacity:1" fill="#11a3d4" d="M 37.5,32.5 C 37.8333,32.5 38.1667,32.5 38.5,32.5C 39.209,33.404 40.209,33.7373 41.5,33.5C 45.3293,32.931 48.6627,33.5977 51.5,35.5C 42.4754,35.8315 33.4754,35.4982 24.5,34.5C 28.9822,33.8331 33.3155,33.1664 37.5,32.5 Z"/></g>
<g><path style="opacity:1" fill="#192025" d="M 23.5,29.5 C 24.1667,30.1667 24.8333,30.8333 25.5,31.5C 29.5,31.5 33.5,31.5 37.5,31.5C 37.5,31.8333 37.5,32.1667 37.5,32.5C 33.3155,33.1664 28.9822,33.8331 24.5,34.5C 33.4754,35.4982 42.4754,35.8315 51.5,35.5C 51.5,36.1667 51.1667,36.5 50.5,36.5C 46.0421,36.7169 41.5421,36.7169 37,36.5C 35.7387,36.7591 34.7387,37.4258 34,38.5C 32.084,35.967 30.084,35.967 28,38.5C 22.502,32.6872 20.3353,34.0205 21.5,42.5C 21.1667,42.5 20.8333,42.5 20.5,42.5C 20.5,39.8333 20.5,37.1667 20.5,34.5C 20.5,34.1667 20.5,33.8333 20.5,33.5C 21.5,33.5 22.5,33.5 23.5,33.5C 23.5,32.1667 23.5,30.8333 23.5,29.5 Z"/></g>
<g><path style="opacity:1" fill="#e2e2e2" d="M 16.5,44.5 C 15.8333,44.5 15.1667,44.5 14.5,44.5C 15.093,41.1996 15.7597,37.8663 16.5,34.5C 17.8056,37.9798 17.8056,41.3132 16.5,44.5 Z"/></g>
<g><path style="opacity:1" fill="#e1e1e2" d="M 20.5,34.5 C 20.5,37.1667 20.5,39.8333 20.5,42.5C 19.2521,41.6661 18.5854,40.3328 18.5,38.5C 18.5854,36.6672 19.2521,35.3339 20.5,34.5 Z"/></g>
<g><path style="opacity:1" fill="#cdcdcd" d="M 50.5,36.5 C 52.2066,41.2242 50.5399,43.0576 45.5,42C 44.1177,37.2945 43.4511,37.4612 43.5,42.5C 36.3282,42.0354 28.9948,42.0354 21.5,42.5C 20.3353,34.0205 22.502,32.6872 28,38.5C 30.084,35.967 32.084,35.967 34,38.5C 34.7387,37.4258 35.7387,36.7591 37,36.5C 41.5421,36.7169 46.0421,36.7169 50.5,36.5 Z"/></g>
<g><path style="opacity:1" fill="#060707" d="M 23.5,38.5 C 25.337,38.6395 25.6704,39.3061 24.5,40.5C 23.7025,40.0431 23.3691,39.3764 23.5,38.5 Z"/></g>
<g><path style="opacity:1" fill="#212121" d="M 35.5,38.5 C 36.675,38.281 37.675,38.6143 38.5,39.5C 36.9483,40.7979 35.9483,40.4646 35.5,38.5 Z"/></g>
<g><path style="opacity:1" fill="#797979" d="M 14.5,44.5 C 15.1667,44.5 15.8333,44.5 16.5,44.5C 17.4831,45.8503 18.8164,46.8503 20.5,47.5C 18.5,48.8333 16.5,48.8333 14.5,47.5C 13.2086,46.4728 13.2086,45.4728 14.5,44.5 Z"/></g>
<g><path style="opacity:1" fill="#909090" d="M 39.5,45.5 C 43.2198,45.5642 46.8865,46.0642 50.5,47C 46.5828,48.6907 42.5828,48.8573 38.5,47.5C 38.8627,46.8165 39.1961,46.1499 39.5,45.5 Z"/></g>
<g><path style="opacity:1" fill="#848484" d="M 21.5,45.5 C 34.5543,47.5418 34.5543,48.5418 21.5,48.5C 21.5,47.5 21.5,46.5 21.5,45.5 Z"/></g>
<g><path style="opacity:1" fill="#908f90" d="M 32.5,46.5 C 34.288,46.2148 35.9547,46.5481 37.5,47.5C 36.6667,47.8333 35.8333,48.1667 35,48.5C 33.6244,48.3158 32.7911,47.6491 32.5,46.5 Z"/></g>
</svg>
